<?xml version="1.0" encoding="UTF-8" standalone="no"?>
<!DOCTYPE svg PUBLIC "-//W3C//DTD SVG 1.1//EN" "http://www.w3.org/Graphics/SVG/1.1/DTD/svg11.dtd">
<svg width="100%" height="100%" viewBox="0 0 2680 900" version="1.1" xmlns="http://www.w3.org/2000/svg" xmlns:xlink="http://www.w3.org/1999/xlink" xml:space="preserve" xmlns:serif="http://www.serif.com/" style="fill-rule:evenodd;clip-rule:evenodd;stroke-linejoin:round;stroke-miterlimit:2;">
    <g>
        <path d="M342.5,34.5C344.898,44.776 347.898,54.776 351.5,64.5C354.159,71.474 356.826,78.474 359.5,85.5C359.824,90.461 361.491,94.794 364.5,98.5C379.589,136.242 397.089,172.909 417,208.5C436.208,241.032 456.208,273.032 477,304.5C500.391,338.227 523.391,372.227 546,406.5C559.012,426.857 570.179,448.19 579.5,470.5C579.552,473.346 580.552,475.68 582.5,477.5C595.926,506.54 603.426,537.207 605,569.5C605.662,585.845 605.495,602.178 604.5,618.5C603.275,623.29 602.608,628.29 602.5,633.5C600.882,636.171 600.215,639.171 600.5,642.5C599.833,646.167 599.167,649.833 598.5,653.5C596.926,655.102 596.259,657.102 596.5,659.5L596.5,661.5C593.88,665.343 592.213,669.676 591.5,674.5C584.483,692.2 576.15,709.2 566.5,725.5C563.395,728.275 561.062,731.608 559.5,735.5C513.747,794.207 454.081,828.873 380.5,839.5C368.667,840.272 357,841.272 345.5,842.5C334.495,842.667 323.495,842.5 312.5,842C310.618,841.802 308.952,841.302 307.5,840.5C301.395,839.004 295.062,838.337 288.5,838.5L286.5,838.5C281.471,836.585 276.137,835.585 270.5,835.5C194.819,821.23 137.319,780.897 98,714.5C69.088,658.348 60.088,599.014 71,536.5C76.214,507.193 85.214,479.193 98,452.5C107.992,433.175 118.992,414.508 131,396.5C175.835,332.164 219.168,266.83 261,200.5C275.501,173.5 289.501,146.167 303,118.5C309.515,102.108 316.182,85.775 323,69.5C327.419,58.182 331.086,46.516 334,34.5C335.413,31.339 337.08,28.339 339,25.5C340.664,28.327 341.83,31.327 342.5,34.5Z" style="fill:rgb(32,75,150);"/>
    </g>
    <g>
        <path d="M342.5,34.5C346.685,44.061 349.685,54.061 351.5,64.5C347.898,54.776 344.898,44.776 342.5,34.5Z" style="fill:rgb(99,134,185);"/>
    </g>
    <g>
        <path d="M359.5,85.5C361.734,89.522 363.401,93.856 364.5,98.5C361.491,94.794 359.824,90.461 359.5,85.5Z" style="fill:rgb(100,134,185);"/>
    </g>
    <g>
        <path d="M342.5,119.5C347.662,132.661 352.329,145.995 356.5,159.5C357.009,164.703 358.676,169.37 361.5,173.5L361.5,174.5C361.41,177.152 362.076,179.485 363.5,181.5C364.363,183.421 365.029,185.421 365.5,187.5C365.41,190.152 366.076,192.485 367.5,194.5C367.41,197.152 368.076,199.485 369.5,201.5C369.41,204.152 370.076,206.485 371.5,208.5C371.41,211.152 372.076,213.485 373.5,215.5C379.477,236.72 383.811,258.387 386.5,280.5C387.735,296.849 389.235,313.182 391,329.5C391.5,341.829 391.667,354.162 391.5,366.5L391.5,369.5C390.732,370.263 390.232,371.263 390,372.5C388.668,382.49 387.501,392.49 386.5,402.5C385.663,406.834 385.163,411.168 385,415.5C402.511,389.134 412.345,360.134 414.5,328.5C415.166,323.177 415.499,317.677 415.5,312C415.693,303.94 415.027,296.107 413.5,288.5C413.34,286.801 413.506,285.134 414,283.5C418.525,288.553 422.025,294.219 424.5,300.5C424.427,302.027 425.094,303.027 426.5,303.5C432.367,315.778 438.033,328.112 443.5,340.5C443.166,343.491 444.166,345.824 446.5,347.5C449.602,353.802 451.936,360.469 453.5,367.5C453.41,370.152 454.076,372.485 455.5,374.5C455.41,377.152 456.076,379.485 457.5,381.5C459.678,387.876 461.011,394.543 461.5,401.5C461.255,407.084 461.922,412.417 463.5,417.5C465.104,484.211 437.437,534.878 380.5,569.5C379.571,568.311 379.238,566.978 379.5,565.5C381.04,560.935 381.707,556.102 381.5,551C381.508,542.57 380.508,534.403 378.5,526.5C378.706,523.505 378.04,520.838 376.5,518.5C371.327,497.821 362.16,479.154 349,462.5C325.105,504.625 306.438,548.958 293,595.5C292,597.167 291,598.833 290,600.5C269.264,608.391 247.764,613.558 225.5,616C215.198,617.285 204.865,618.118 194.5,618.5C182.23,579.401 181.397,540.068 192,500.5C196.291,486.916 201.958,473.916 209,461.5C239.193,415.133 266.86,367.133 292,317.5C311.021,276.267 324.521,233.267 332.5,188.5C336.747,171.892 339.08,154.892 339.5,137.5C340.829,131.548 341.829,125.548 342.5,119.5Z" style="fill:rgb(235,136,50);"/>
    </g>
    <g>
        <path d="M342.5,119.5C341.829,125.548 340.829,131.548 339.5,137.5C339.441,131.089 340.108,124.756 341.5,118.5C342.107,118.624 342.44,118.957 342.5,119.5Z" style="fill:rgb(87,92,106);"/>
    </g>
    <g>
        <path d="M356.5,159.5C358.538,163.94 360.204,168.607 361.5,173.5C358.676,169.37 357.009,164.703 356.5,159.5Z" style="fill:rgb(165,115,65);"/>
    </g>
    <g>
        <path d="M361.5,174.5C362.924,176.515 363.59,178.848 363.5,181.5C362.076,179.485 361.41,177.152 361.5,174.5Z" style="fill:rgb(159,113,68);"/>
    </g>
    <g>
        <path d="M339.5,137.5C339.08,154.892 336.747,171.892 332.5,188.5C335.259,171.415 337.592,154.415 339.5,137.5Z" style="fill:rgb(68,88,119);"/>
    </g>
    <g>
        <path d="M365.5,187.5C366.924,189.515 367.59,191.848 367.5,194.5C366.076,192.485 365.41,190.152 365.5,187.5Z" style="fill:rgb(160,114,65);"/>
    </g>
    <g>
        <path d="M367.5,194.5C368.924,196.515 369.59,198.848 369.5,201.5C368.076,199.485 367.41,197.152 367.5,194.5Z" style="fill:rgb(160,114,65);"/>
    </g>
    <g>
        <path d="M369.5,201.5C370.924,203.515 371.59,205.848 371.5,208.5C370.076,206.485 369.41,204.152 369.5,201.5Z" style="fill:rgb(160,114,65);"/>
    </g>
    <g>
        <path d="M371.5,208.5C372.924,210.515 373.59,212.848 373.5,215.5C372.076,213.485 371.41,211.152 371.5,208.5Z" style="fill:rgb(159,114,65);"/>
    </g>
    <g>
        <path d="M386.5,280.5C388.455,294.676 390.288,309.009 392,323.5C392.827,338.006 392.661,352.339 391.5,366.5C391.667,354.162 391.5,341.829 391,329.5C389.235,313.182 387.735,296.849 386.5,280.5Z" style="fill:rgb(152,112,72);"/>
    </g>
    <g>
        <path d="M424.5,300.5C425.906,300.973 426.573,301.973 426.5,303.5C425.094,303.027 424.427,302.027 424.5,300.5Z" style="fill:rgb(116,102,87);"/>
    </g>
    <g>
        <path d="M413.5,288.5C415.027,296.107 415.693,303.94 415.5,312C415.499,317.677 415.166,323.177 414.5,328.5C414.611,315.152 414.277,301.819 413.5,288.5Z" style="fill:rgb(72,90,115);"/>
    </g>
    <g>
        <path d="M443.5,340.5C445.065,342.509 446.065,344.843 446.5,347.5C444.166,345.824 443.166,343.491 443.5,340.5Z" style="fill:rgb(163,113,68);"/>
    </g>
    <g>
        <path d="M453.5,367.5C454.924,369.515 455.59,371.848 455.5,374.5C454.076,372.485 453.41,370.152 453.5,367.5Z" style="fill:rgb(154,111,70);"/>
    </g>
    <g>
        <path d="M455.5,374.5C456.924,376.515 457.59,378.848 457.5,381.5C456.076,379.485 455.41,377.152 455.5,374.5Z" style="fill:rgb(146,110,71);"/>
    </g>
    <g>
        <path d="M391.5,369.5C390.393,380.717 388.726,391.717 386.5,402.5C387.501,392.49 388.668,382.49 390,372.5C390.232,371.263 390.732,370.263 391.5,369.5Z" style="fill:rgb(172,117,60);"/>
    </g>
    <g>
        <path d="M461.5,401.5C462.957,406.598 463.624,411.931 463.5,417.5C461.922,412.417 461.255,407.084 461.5,401.5Z" style="fill:rgb(162,115,62);"/>
    </g>
    <path d="M770.5,570.5C770.624,558.467 771.291,546.467 772.5,534.5C784.157,497.354 809.157,474.521 847.5,466C880.205,459.456 912.205,461.789 943.5,473C982.389,491.928 1000.22,523.095 997,566.5C993.473,609.041 971.306,636.875 930.5,650C898.056,657.651 865.723,657.318 833.5,649C795.64,636.312 774.64,610.145 770.5,570.5ZM871.5,499.5C850.829,501.845 834.829,511.845 823.5,529.5C817.349,545.355 815.849,561.688 819,578.5C827.176,602.001 843.676,615.168 868.5,618C880.872,618.843 893.205,618.51 905.5,617C916.036,614.068 925.369,609.068 933.5,602C947.743,586.159 952.91,567.659 949,546.5C945.933,530.572 937.766,518.072 924.5,509C907.738,501.231 890.071,498.065 871.5,499.5Z" style="fill:rgb(58,137,243);"/>
    <g>
        <path d="M1730.5,462.5C1767.07,457.724 1800.07,466.224 1829.5,488C1854.6,510.952 1864.43,539.452 1859,573.5C1855.37,592.26 1846.87,608.426 1833.5,622C1843.36,630.945 1854.02,638.945 1865.5,646C1865.96,646.414 1866.29,646.914 1866.5,647.5C1855.27,655.867 1843.1,662.534 1830,667.5L1826.5,667C1817.17,658.83 1807.17,651.663 1796.5,645.5C1764.49,656.072 1732.16,657.239 1699.5,649C1657.04,634.356 1635.04,604.522 1633.5,559.5C1634.57,513.946 1656.57,483.78 1699.5,469C1709.73,465.721 1720.07,463.554 1730.5,462.5ZM1736.5,500.5C1734.03,501.317 1731.36,501.817 1728.5,502C1708.29,506.676 1694.12,518.51 1686,537.5C1677.76,564.709 1683.92,587.875 1704.5,607C1724.13,618.699 1744.8,620.699 1766.5,613C1766.96,612.586 1767.29,612.086 1767.5,611.5C1760.83,603.167 1754.17,594.833 1747.5,586.5C1757.11,584.807 1766.77,584.307 1776.5,585C1783.19,586.517 1788.86,589.85 1793.5,595C1794.83,595.667 1796.17,595.667 1797.5,595C1803.01,589.155 1806.84,582.321 1809,574.5C1816.34,548.188 1809.18,527.022 1787.5,511C1771.64,502.386 1754.64,498.886 1736.5,500.5Z" style="fill:rgb(237,137,51);"/>
    </g>
    <g>
        <path d="M1567.5,469.5L1567.5,468.5L1613.5,468.5C1613.82,475.354 1613.49,482.021 1612.5,488.5L1612.5,469.5L1567.5,469.5Z" style="fill:rgb(150,197,244);"/>
    </g>
    <g>
        <path d="M2250.5,648.5C2246.6,635.923 2241.93,623.589 2236.5,611.5L2148.5,611.5C2143.4,624.387 2138.06,637.221 2132.5,650C2115.84,650.5 2099.17,650.667 2082.5,650.5C2084.36,644.426 2086.52,638.426 2089,632.5C2113.11,579.272 2137.11,525.605 2161,471.5C2161.83,470.667 2162.67,469.833 2163.5,469C2181.5,468.333 2199.5,468.333 2217.5,469C2219.43,469.251 2221.27,469.751 2223,470.5C2249.4,530.543 2275.9,590.543 2302.5,650.5C2284.93,651.131 2267.6,650.464 2250.5,648.5ZM2191.5,506.5C2184.26,525.657 2176.43,544.657 2168,563.5C2166.19,568.435 2164.69,573.435 2163.5,578.5C2183.18,578.833 2202.84,578.5 2222.5,577.5C2212.84,555.691 2203.68,533.691 2195,511.5C2194.1,509.569 2192.93,507.903 2191.5,506.5Z" style="fill:rgb(237,138,51);"/>
    </g>
    <g>
        <path d="M2485.5,469.5L2485.5,468.5L2665.5,468.5L2665.5,505.5L2597.5,505.5C2619.66,504.503 2641.99,504.169 2664.5,504.5L2664.5,469.5L2485.5,469.5Z" style="fill:rgb(238,166,89);"/>
    </g>
    <g>
        <path d="M1140.5,469.5C1189.37,473.874 1212.21,500.541 1209,549.5C1203.39,574.448 1188.55,591.281 1164.5,600C1154.02,602.877 1143.36,604.544 1132.5,605C1111.84,605.5 1091.17,605.667 1070.5,605.5C1069.5,620.324 1069.17,635.324 1069.5,650.5L1026.5,650.5L1026.5,469.5L1140.5,469.5ZM1070.5,568.5C1088,569.662 1105.66,569.829 1123.5,569C1126.04,568.814 1128.37,568.314 1130.5,567.5C1143.25,567.715 1152.75,562.381 1159,551.5C1167.31,525.808 1158.15,510.641 1131.5,506C1111.17,505.5 1090.84,505.333 1070.5,505.5L1070.5,568.5Z" style="fill:rgb(57,137,243);"/>
    </g>
    <g>
        <path d="M1280.5,592.5C1279.51,599.648 1279.18,606.981 1279.5,614.5L1391.5,614.5L1391.5,650.5C1339.62,651.155 1287.95,650.489 1236.5,648.5C1235.4,593.506 1235.24,538.506 1236,483.5C1236.17,478.798 1236.67,474.132 1237.5,469.5C1288.46,468.505 1339.46,468.171 1390.5,468.5L1390.5,505.5L1279.5,505.5L1279.5,543.5L1381.5,543.5L1381.5,577.5L1280.5,577.5L1280.5,592.5Z" style="fill:rgb(59,138,243);"/>
    </g>
    <g>
        <path d="M1565.5,588.5C1565.78,589.289 1566.28,589.956 1567,590.5C1567.5,550.168 1567.67,509.835 1567.5,469.5L1612.5,469.5L1612.5,511.5C1611.5,557.664 1611.17,603.997 1611.5,650.5L1562.5,650.5C1557.11,644.758 1551.95,638.758 1547,632.5C1520.72,597.881 1494.05,563.547 1467,529.5C1466.5,569.832 1466.33,610.165 1466.5,650.5L1423.5,650.5C1423.74,649.209 1423.4,648.209 1422.5,647.5L1422.5,468.5C1438.86,468.217 1455.19,468.717 1471.5,470C1503.05,509.375 1534.38,548.875 1565.5,588.5Z" style="fill:rgb(56,137,243);"/>
    </g>
    <g>
        <path d="M1567.5,468.5L1567.5,469.5C1567.67,509.835 1567.5,550.168 1567,590.5C1566.28,589.956 1565.78,589.289 1565.5,588.5C1566.17,548.5 1566.83,508.5 1567.5,468.5Z" style="fill:rgb(207,231,249);"/>
    </g>
    <g>
        <path d="M1930.5,469.5C1931.33,507.331 1931.83,545.331 1932,583.5C1935.1,602.599 1946.27,613.766 1965.5,617C1976.97,618.124 1988.3,617.457 1999.5,615C2016.51,607.805 2025.18,594.972 2025.5,576.5C2026.5,541.004 2026.83,505.337 2026.5,469.5L2072.5,469.5L2072.5,585.5C2065.58,626.254 2041.58,649.087 2000.5,654C1983.83,654.667 1967.17,654.667 1950.5,654C1911.32,647.657 1889.32,624.823 1884.5,585.5L1884.5,469.5L1930.5,469.5Z" style="fill:rgb(237,137,51);"/>
    </g>
    <g>
        <path d="M2072.5,585.5L2072.5,469.5L2026.5,469.5C2026.83,505.337 2026.5,541.004 2025.5,576.5L2025.5,468.5L2073.5,468.5C2073.83,507.67 2073.5,546.67 2072.5,585.5Z" style="fill:rgb(241,189,131);"/>
    </g>
    <g>
        <path d="M2461.5,468.5C2462.92,469.451 2464.59,469.784 2466.5,469.5L2466.5,504.5C2442.33,504.169 2418.33,504.502 2394.5,505.5L2394.5,650.5L2348.5,650.5L2348.5,642.5C2349.5,596.67 2349.83,550.67 2349.5,504.5L2282.5,504.5L2282.5,469.5C2342.14,468.515 2401.81,468.182 2461.5,468.5Z" style="fill:rgb(237,137,50);"/>
    </g>
    <g>
        <path d="M2485.5,469.5L2664.5,469.5L2664.5,504.5C2641.99,504.169 2619.66,504.503 2597.5,505.5L2597.5,650.5L2549.5,650.5L2549.5,505.5C2528.34,504.503 2507.01,504.169 2485.5,504.5L2485.5,469.5Z" style="fill:rgb(237,137,50);"/>
    </g>
    <g>
        <path d="M579.5,470.5C581.065,472.509 582.065,474.843 582.5,477.5C580.552,475.68 579.552,473.346 579.5,470.5Z" style="fill:rgb(115,147,192);"/>
    </g>
    <g>
        <path d="M2282.5,469.5L2282.5,504.5L2349.5,504.5C2349.83,550.67 2349.5,596.67 2348.5,642.5L2348.5,505.5L2281.5,505.5C2281.17,493.322 2281.5,481.322 2282.5,469.5Z" style="fill:rgb(242,189,128);"/>
    </g>
    <g>
        <path d="M2461.5,468.5L2467.5,468.5L2467.5,505.5L2394.5,505.5C2418.33,504.502 2442.33,504.169 2466.5,504.5L2466.5,469.5C2464.59,469.784 2462.92,469.451 2461.5,468.5Z" style="fill:rgb(242,189,130);"/>
    </g>
    <g>
        <path d="M2485.5,468.5L2485.5,504.5C2507.01,504.169 2528.34,504.503 2549.5,505.5L2484.5,505.5C2484.17,492.989 2484.5,480.655 2485.5,468.5Z" style="fill:rgb(242,190,132);"/>
    </g>
    <g>
        <path d="M1930.5,469.5L1884.5,469.5L1884.5,585.5C1883.5,546.67 1883.17,507.67 1883.5,468.5C1899.34,468.17 1915.01,468.504 1930.5,469.5Z" style="fill:rgb(237,158,73);"/>
    </g>
    <g>
        <path d="M376.5,518.5C378.04,520.838 378.706,523.505 378.5,526.5C377.232,524.095 376.565,521.428 376.5,518.5Z" style="fill:rgb(87,94,104);"/>
    </g>
    <g>
        <path d="M378.5,526.5C380.508,534.403 381.508,542.57 381.5,551C381.707,556.102 381.04,560.935 379.5,565.5C379.633,552.484 379.299,539.484 378.5,526.5Z" style="fill:rgb(85,90,113);"/>
    </g>
    <g>
        <path d="M772.5,534.5C771.291,546.467 770.624,558.467 770.5,570.5C769.343,562.344 769.177,554.01 770,545.5C770.419,541.608 771.252,537.942 772.5,534.5Z" style="fill:rgb(133,185,245);"/>
    </g>
    <g>
        <path d="M557.5,586.5C558.058,587.79 559.058,588.623 560.5,589C522.875,585.446 485.541,587.446 448.5,595C434.071,598.718 419.738,602.718 405.5,607C370.079,620.14 334.413,632.473 298.5,644C273.593,650.707 248.26,655.04 222.5,657C190.507,659.068 160.174,653.068 131.5,639C123.345,633.67 115.345,628.17 107.5,622.5C105.421,616.1 104.588,609.434 105,602.5C116.716,610.408 128.883,617.575 141.5,624C155.181,628.731 169.181,631.897 183.5,633.5C212.901,636.3 241.901,633.967 270.5,626.5C281.24,624.319 291.907,621.819 302.5,619C334.064,607.256 366.064,596.923 398.5,588C425.538,580.804 453.038,576.971 481,576.5C507.102,575.435 532.602,578.768 557.5,586.5Z" style="fill:rgb(129,203,242);"/>
    </g>
    <g>
        <path d="M557.5,586.5C562.457,587.989 567.457,589.323 572.5,590.5C564.464,682.071 518.464,746.571 434.5,784C365.129,810.657 296.129,809.991 227.5,782C160.3,749.489 120.3,696.322 107.5,622.5C115.345,628.17 123.345,633.67 131.5,639C160.174,653.068 190.507,659.068 222.5,657C248.26,655.04 273.593,650.707 298.5,644C334.413,632.473 370.079,620.14 405.5,607C419.738,602.718 434.071,598.718 448.5,595C485.541,587.446 522.875,585.446 560.5,589C559.058,588.623 558.058,587.79 557.5,586.5Z" style="fill:rgb(56,136,242);"/>
    </g>
    <g>
        <path d="M1280.5,592.5L1280.5,613.5L1369.5,613.5L1369.5,614.5L1279.5,614.5C1279.18,606.981 1279.51,599.648 1280.5,592.5Z" style="fill:rgb(201,224,248);"/>
    </g>
    <g>
        <path d="M604.5,618.5C604.698,623.75 604.031,628.75 602.5,633.5C602.608,628.29 603.275,623.29 604.5,618.5Z" style="fill:rgb(166,187,215);"/>
    </g>
    <g>
        <path d="M270.5,626.5C241.901,633.967 212.901,636.3 183.5,633.5C201.187,633.711 218.854,633.211 236.5,632C247.833,630.055 259.167,628.222 270.5,626.5Z" style="fill:rgb(58,111,176);"/>
    </g>
    <g>
        <path d="M602.5,633.5C602.785,636.829 602.118,639.829 600.5,642.5C600.215,639.171 600.882,636.171 602.5,633.5Z" style="fill:rgb(131,159,199);"/>
    </g>
    <g>
        <path d="M1369.5,614.5L1369.5,613.5L1392.5,613.5L1392.5,651.5L1236.5,651.5L1236.5,648.5C1287.95,650.489 1339.62,651.155 1391.5,650.5L1391.5,614.5L1369.5,614.5Z" style="fill:rgb(118,177,243);"/>
    </g>
    <g>
        <path d="M1422.5,647.5C1423.4,648.209 1423.74,649.209 1423.5,650.5L1466.5,650.5C1452.01,651.496 1437.34,651.829 1422.5,651.5L1422.5,647.5Z" style="fill:rgb(152,199,248);"/>
    </g>
    <g>
        <path d="M1612.5,511.5L1612.5,651.5C1595.66,651.83 1578.99,651.497 1562.5,650.5L1611.5,650.5C1611.17,603.997 1611.5,557.664 1612.5,511.5Z" style="fill:rgb(123,180,244);"/>
    </g>
    <g>
        <path d="M2394.5,505.5L2395.5,505.5L2395.5,651.5C2379.66,651.83 2363.99,651.496 2348.5,650.5L2394.5,650.5L2394.5,505.5Z" style="fill:rgb(246,212,172);"/>
    </g>
    <g>
        <path d="M598.5,653.5C598.741,655.898 598.074,657.898 596.5,659.5C596.259,657.102 596.926,655.102 598.5,653.5Z" style="fill:rgb(143,169,203);"/>
    </g>
    <g>
        <path d="M596.5,661.5C595.401,666.144 593.734,670.478 591.5,674.5C592.213,669.676 593.88,665.343 596.5,661.5Z" style="fill:rgb(114,148,193);"/>
    </g>
    <g>
        <path d="M566.5,725.5C564.938,729.392 562.605,732.725 559.5,735.5C561.062,731.608 563.395,728.275 566.5,725.5Z" style="fill:rgb(163,185,212);"/>
    </g>
    <g>
        <path d="M270.5,835.5C276.137,835.585 281.471,836.585 286.5,838.5C280.939,838.044 275.606,837.044 270.5,835.5Z" style="fill:rgb(85,124,178);"/>
    </g>
    <g>
        <path d="M288.5,838.5C295.062,838.337 301.395,839.004 307.5,840.5C300.95,840.546 294.617,839.879 288.5,838.5Z" style="fill:rgb(89,126,180);"/>
    </g>
    <g>
        <path d="M380.5,839.5C369.102,841.86 357.435,842.86 345.5,842.5C357,841.272 368.667,840.272 380.5,839.5Z" style="fill:rgb(125,154,196);"/>
    </g>
</svg>
